<mxfile host="Electron" modified="2023-09-08T06:51:32.977Z" agent="Mozilla/5.0 (Windows NT 10.0; Win64; x64) AppleWebKit/537.36 (KHTML, like Gecko) draw.io/21.6.8 Chrome/114.0.5735.289 Electron/25.5.0 Safari/537.36" etag="olgoZ65-imzFv2y6Evne" version="21.6.8" type="device">
  <diagram name="Page-1" id="c9db0220-8083-56f3-ca83-edcdcd058819">
    <mxGraphModel dx="969" dy="2576.5" grid="1" gridSize="10" guides="1" tooltips="1" connect="1" arrows="1" fold="1" page="1" pageScale="1.5" pageWidth="826" pageHeight="1169" background="none" math="0" shadow="0">
      <root>
        <mxCell id="0" style=";html=1;" />
        <mxCell id="1" style=";html=1;" parent="0" />
        <mxCell id="IrsWf6ujI1S_CX8h6fi--1" value="" style="html=1;shadow=0;dashed=0;shape=mxgraph.bootstrap.rect;fillColor=#222222;strokeColor=none;whiteSpace=wrap;rounded=0;fontSize=12;fontColor=#000000;align=center;" parent="1" vertex="1">
          <mxGeometry x="110" y="-1290" width="880" height="25.934065934065938" as="geometry" />
        </mxCell>
        <mxCell id="IrsWf6ujI1S_CX8h6fi--2" value="Guest Search" style="html=1;shadow=0;dashed=0;shape=mxgraph.bootstrap.rect;fontSize=14;whiteSpace=wrap;fontStyle=1" parent="IrsWf6ujI1S_CX8h6fi--1" vertex="1">
          <mxGeometry width="120" height="25.93" as="geometry" />
        </mxCell>
        <mxCell id="IrsWf6ujI1S_CX8h6fi--5" value="Connection to DB" style="html=1;shadow=0;dashed=0;fillColor=none;strokeColor=none;shape=mxgraph.bootstrap.rect;fontColor=#999999;spacingRight=30;whiteSpace=wrap;" parent="IrsWf6ujI1S_CX8h6fi--1" vertex="1">
          <mxGeometry x="130" width="178" height="25.93" as="geometry" />
        </mxCell>
        <mxCell id="IrsWf6ujI1S_CX8h6fi--6" value="" style="html=1;shadow=0;dashed=0;shape=mxgraph.bootstrap.rrect;rSize=8;fillColor=#33FF33;strokeColor=none;fontColor=#ffffff;whiteSpace=wrap;" parent="IrsWf6ujI1S_CX8h6fi--5" vertex="1">
          <mxGeometry x="1" y="0.5" width="25" height="16" relative="1" as="geometry">
            <mxPoint x="-48" y="-8" as="offset" />
          </mxGeometry>
        </mxCell>
        <mxCell id="IrsWf6ujI1S_CX8h6fi--11" value="Quick Guide&lt;br&gt;...&lt;br&gt;...&lt;br&gt;" style="html=1;shadow=0;dashed=0;shape=mxgraph.bootstrap.rrect;rSize=5;strokeColor=#666666;rounded=0;fontSize=12;align=center;fillColor=#f5f5f5;gradientColor=#b3b3b3;container=0;" parent="1" vertex="1">
          <mxGeometry x="749.9982608695651" y="-1122.1918681318682" width="252.52173913043478" height="259.34065934065933" as="geometry" />
        </mxCell>
        <mxCell id="IrsWf6ujI1S_CX8h6fi--17" value="Material Name/Type Specification" style="html=1;shadow=0;dashed=0;shape=mxgraph.bootstrap.rect;strokeColor=none;fillColor=none;fontColor=#999999;align=left;spacingLeft=5;whiteSpace=wrap;rounded=0;fontStyle=1" parent="1" vertex="1">
          <mxGeometry x="110" y="-1220" width="200" height="12.97" as="geometry" />
        </mxCell>
        <mxCell id="IrsWf6ujI1S_CX8h6fi--19" value="Add Parameter" style="html=1;shadow=0;dashed=0;shape=mxgraph.bootstrap.rect;strokeColor=none;fillColor=none;fontColor=#999999;align=left;spacingLeft=5;whiteSpace=wrap;rounded=0;fontStyle=1" parent="1" vertex="1">
          <mxGeometry x="110" y="-1168.1307692307694" width="153.04347826086953" height="12.967032967032969" as="geometry" />
        </mxCell>
        <mxCell id="IrsWf6ujI1S_CX8h6fi--51" value="Start Search" style="html=1;shadow=0;dashed=0;shape=mxgraph.bootstrap.rrect;align=center;rSize=5;strokeColor=none;fillColor=#3D8BCD;fontColor=#ffffff;fontSize=16;whiteSpace=wrap;rounded=0;" parent="1" vertex="1">
          <mxGeometry x="110" y="-779.1197802197802" width="114.78260869565217" height="25.934065934065938" as="geometry" />
        </mxCell>
        <mxCell id="IrsWf6ujI1S_CX8h6fi--52" value="Cancel" style="html=1;shadow=0;dashed=0;shape=mxgraph.bootstrap.rrect;align=center;rSize=5;strokeColor=#dddddd;fontSize=16;whiteSpace=wrap;rounded=0;" parent="1" vertex="1">
          <mxGeometry x="240.08695652173913" y="-779.1197802197802" width="76.52173913043477" height="25.934065934065938" as="geometry" />
        </mxCell>
        <mxCell id="IrsWf6ujI1S_CX8h6fi--53" value="Reset Search" style="html=1;shadow=0;dashed=0;shape=mxgraph.bootstrap.rrect;align=center;rSize=5;strokeColor=none;fillColor=#DB524C;fontColor=#ffffff;fontSize=16;whiteSpace=wrap;rounded=0;" parent="1" vertex="1">
          <mxGeometry x="592.086956521739" y="-779.1197802197802" width="130.08695652173913" height="25.934065934065938" as="geometry" />
        </mxCell>
        <mxCell id="nETb7EGVO4KnXeCZTSQA-1" value="Login" style="html=1;shadow=0;dashed=0;shape=mxgraph.bootstrap.rrect;rSize=5;fontSize=16;strokeColor=#666666;whiteSpace=wrap;fillColor=#f5f5f5;gradientColor=#b3b3b3;" vertex="1" parent="1">
          <mxGeometry x="909.998260869565" y="-1260.001208791209" width="80" height="40" as="geometry" />
        </mxCell>
        <mxCell id="IrsWf6ujI1S_CX8h6fi--13" value="" style="html=1;shadow=0;dashed=0;shape=mxgraph.bootstrap.anchor;fontSize=26;align=left;whiteSpace=wrap;" parent="1" vertex="1">
          <mxGeometry x="1011.4765217391304" y="-923.7045054945056" width="229.56521739130434" height="25.934065934065938" as="geometry" />
        </mxCell>
        <mxCell id="IrsWf6ujI1S_CX8h6fi--14" value="" style="html=1;shadow=0;dashed=0;shape=mxgraph.bootstrap.anchor;strokeColor=#dddddd;whiteSpace=wrap;align=left;verticalAlign=top;fontSize=14;whiteSpace=wrap;" parent="1" vertex="1">
          <mxGeometry x="1011.4765217391304" y="-897.7704395604397" width="229.56521739130434" height="51.868131868131876" as="geometry" />
        </mxCell>
        <mxCell id="nETb7EGVO4KnXeCZTSQA-3" value="Main Page" style="html=1;shadow=0;dashed=0;shape=mxgraph.bootstrap.rrect;rSize=5;fontSize=16;strokeColor=#666666;whiteSpace=wrap;fillColor=#f5f5f5;gradientColor=#b3b3b3;" vertex="1" parent="1">
          <mxGeometry x="819.998260869565" y="-1260.001208791209" width="80" height="40" as="geometry" />
        </mxCell>
        <mxCell id="nETb7EGVO4KnXeCZTSQA-4" value="Settings" style="html=1;shadow=0;dashed=0;shape=mxgraph.bootstrap.rrect;rSize=5;fontSize=16;strokeColor=#666666;whiteSpace=wrap;fillColor=#f5f5f5;gradientColor=#b3b3b3;" vertex="1" parent="1">
          <mxGeometry x="729.998260869565" y="-1260.001208791209" width="80" height="40" as="geometry" />
        </mxCell>
        <mxCell id="IrsWf6ujI1S_CX8h6fi--23" value="Search Results" style="html=1;shadow=0;dashed=0;shape=mxgraph.bootstrap.rect;strokeColor=none;fillColor=none;fontColor=#999999;align=left;spacingLeft=5;whiteSpace=wrap;rounded=0;fontFamily=Helvetica;" parent="1" vertex="1">
          <mxGeometry x="110" y="-956.1226373626374" width="153.04347826086953" height="12.967032967032969" as="geometry" />
        </mxCell>
        <mxCell id="IrsWf6ujI1S_CX8h6fi--24" value="" style="html=1;shadow=0;dashed=0;shape=mxgraph.bootstrap.rrect;rSize=5;fontSize=12;strokeColor=#dddddd;align=left;spacing=10;verticalAlign=top;whiteSpace=wrap;rounded=0;fontFamily=Helvetica;" parent="1" vertex="1">
          <mxGeometry x="110" y="-943.1556043956044" width="612.1739130434781" height="155.60439560439562" as="geometry" />
        </mxCell>
        <mxCell id="nETb7EGVO4KnXeCZTSQA-59" value="" style="group;fontFamily=Helvetica;" vertex="1" connectable="0" parent="1">
          <mxGeometry x="120" y="-939.86" width="600" height="150" as="geometry" />
        </mxCell>
        <mxCell id="nETb7EGVO4KnXeCZTSQA-102" value="" style="strokeColor=none;fillColor=#CCE0FF;fontSize=11;fontColor=#3384FF;rounded=1;html=1;align=center;fontStyle=1;sketch=1;hachureGap=4;pointerEvents=0;fontFamily=Helvetica;" vertex="1" parent="nETb7EGVO4KnXeCZTSQA-59">
          <mxGeometry x="9.375" y="24.602698412698373" width="37.5" height="15.873015873015872" as="geometry" />
        </mxCell>
        <mxCell id="nETb7EGVO4KnXeCZTSQA-7" value="Material Name&amp;nbsp;&lt;span style=&quot;white-space: pre;&quot;&gt;&#x9;&lt;/span&gt;Compare Materials" style="html=1;fillColor=none;strokeColor=none;fontSize=11;align=left;fontColor=#596780;whiteSpace=wrap;sketch=1;hachureGap=4;pointerEvents=0;fontFamily=Helvetica;" vertex="1" parent="nETb7EGVO4KnXeCZTSQA-59">
          <mxGeometry x="9.38" width="200.63" height="15.87" as="geometry" />
        </mxCell>
        <mxCell id="nETb7EGVO4KnXeCZTSQA-8" value="Search Fit" style="html=1;fillColor=none;strokeColor=none;fontSize=11;align=left;fontColor=#596780;whiteSpace=wrap;sketch=1;hachureGap=4;pointerEvents=0;fontFamily=Helvetica;" vertex="1" parent="nETb7EGVO4KnXeCZTSQA-59">
          <mxGeometry x="220" width="90.63" height="15.87" as="geometry" />
        </mxCell>
        <mxCell id="nETb7EGVO4KnXeCZTSQA-9" value="Par. A" style="html=1;fillColor=none;strokeColor=none;fontSize=11;align=right;fontColor=#596780;whiteSpace=wrap;sketch=1;hachureGap=4;pointerEvents=0;fontFamily=Helvetica;" vertex="1" parent="nETb7EGVO4KnXeCZTSQA-59">
          <mxGeometry x="300" width="49.38" height="15.87" as="geometry" />
        </mxCell>
        <mxCell id="nETb7EGVO4KnXeCZTSQA-10" value="Par. B" style="html=1;fillColor=none;strokeColor=none;fontSize=11;align=left;fontColor=#596780;whiteSpace=wrap;sketch=1;hachureGap=4;pointerEvents=0;fontFamily=Helvetica;" vertex="1" parent="nETb7EGVO4KnXeCZTSQA-59">
          <mxGeometry x="349.995" width="84.375" height="15.873015873015872" as="geometry" />
        </mxCell>
        <mxCell id="nETb7EGVO4KnXeCZTSQA-11" value="Par. C" style="html=1;fillColor=none;strokeColor=none;fontSize=11;align=center;fontColor=#596780;whiteSpace=wrap;sketch=1;hachureGap=4;pointerEvents=0;fontFamily=Helvetica;" vertex="1" parent="nETb7EGVO4KnXeCZTSQA-59">
          <mxGeometry x="370" width="84.375" height="15.873015873015872" as="geometry" />
        </mxCell>
        <mxCell id="nETb7EGVO4KnXeCZTSQA-12" value="Par. D" style="html=1;fillColor=none;strokeColor=none;fontSize=11;align=center;fontColor=#596780;whiteSpace=wrap;sketch=1;hachureGap=4;pointerEvents=0;fontFamily=Helvetica;" vertex="1" parent="nETb7EGVO4KnXeCZTSQA-59">
          <mxGeometry x="429.995" width="37.5" height="15.873015873015872" as="geometry" />
        </mxCell>
        <mxCell id="nETb7EGVO4KnXeCZTSQA-13" value="" style="shape=line;strokeWidth=2;html=1;strokeColor=#DFE1E5;resizeWidth=1;sketch=1;hachureGap=4;pointerEvents=0;fontFamily=Helvetica;fontSize=20;" vertex="1" parent="nETb7EGVO4KnXeCZTSQA-59">
          <mxGeometry x="9.375" y="15.873015873015872" width="590.625" height="7.936507936507936" as="geometry" />
        </mxCell>
        <mxCell id="nETb7EGVO4KnXeCZTSQA-15" value="TPU A" style="strokeColor=none;fillColor=none;fontSize=12;fontColor=#596780;align=left;html=1;sketch=1;hachureGap=4;pointerEvents=0;fontFamily=Helvetica;" vertex="1" parent="nETb7EGVO4KnXeCZTSQA-59">
          <mxGeometry x="9.375" y="24.6031746031746" width="46.875" height="15.873015873015872" as="geometry" />
        </mxCell>
        <mxCell id="nETb7EGVO4KnXeCZTSQA-17" value="123&amp;nbsp;&lt;span style=&quot;font-size: 10px;&quot;&gt;&lt;span style=&quot;font-size: 10px;&quot;&gt;&amp;nbsp; &amp;nbsp;&amp;nbsp;&lt;/span&gt;&lt;/span&gt;123&lt;span style=&quot;font-size: 10px;&quot;&gt;&lt;span style=&quot;font-size: 10px;&quot;&gt;&amp;nbsp; &amp;nbsp;&amp;nbsp;&lt;/span&gt;&lt;/span&gt;&lt;span style=&quot;font-size: 10px;&quot;&gt;&lt;span style=&quot;font-size: 10px;&quot;&gt;&amp;nbsp;&amp;nbsp;&amp;nbsp;&amp;nbsp;&lt;/span&gt;&lt;/span&gt;123&lt;span style=&quot;font-size: 10px;&quot;&gt;&lt;span style=&quot;font-size: 10px;&quot;&gt;&amp;nbsp; &amp;nbsp;&lt;/span&gt;&lt;/span&gt;&lt;span style=&quot;font-size: 10px;&quot;&gt;&lt;span style=&quot;font-size: 10px;&quot;&gt;&amp;nbsp;&amp;nbsp;&amp;nbsp;&amp;nbsp;&lt;/span&gt;&lt;/span&gt;123&lt;br style=&quot;font-size: 10px;&quot;&gt;&lt;br style=&quot;font-size: 10px;&quot;&gt;123&#x9;&lt;span style=&quot;border-color: var(--border-color); font-size: 10px;&quot;&gt;&lt;span style=&quot;font-size: 10px;&quot;&gt;&amp;nbsp;&amp;nbsp;&amp;nbsp;&amp;nbsp;&lt;/span&gt;&lt;/span&gt;123&lt;span style=&quot;border-color: var(--border-color); font-size: 10px;&quot;&gt;&lt;span style=&quot;font-size: 10px;&quot;&gt;&amp;nbsp;&amp;nbsp;&amp;nbsp;&amp;nbsp;&lt;/span&gt;&lt;/span&gt;&lt;span style=&quot;border-color: var(--border-color); font-size: 10px;&quot;&gt;&lt;span style=&quot;font-size: 10px;&quot;&gt;&amp;nbsp;&amp;nbsp;&amp;nbsp;&amp;nbsp;&lt;/span&gt;&lt;/span&gt;123&lt;span style=&quot;border-color: var(--border-color); font-size: 10px;&quot;&gt;&lt;span style=&quot;font-size: 10px;&quot;&gt;&amp;nbsp;&amp;nbsp;&amp;nbsp;&amp;nbsp;&lt;/span&gt;&lt;/span&gt;&lt;span style=&quot;border-color: var(--border-color); font-size: 10px;&quot;&gt;&lt;span style=&quot;font-size: 10px;&quot;&gt;&amp;nbsp;&amp;nbsp;&amp;nbsp;&amp;nbsp;&lt;/span&gt;&lt;/span&gt;123&lt;br style=&quot;font-size: 10px;&quot;&gt;&lt;br style=&quot;font-size: 10px;&quot;&gt;123&#x9;&lt;span style=&quot;border-color: var(--border-color); font-size: 10px;&quot;&gt;&lt;span style=&quot;font-size: 10px;&quot;&gt;&amp;nbsp;&amp;nbsp;&amp;nbsp;&amp;nbsp;&lt;/span&gt;&lt;/span&gt;123&lt;span style=&quot;border-color: var(--border-color); font-size: 10px;&quot;&gt;&lt;span style=&quot;font-size: 10px;&quot;&gt;&amp;nbsp;&amp;nbsp;&amp;nbsp;&amp;nbsp;&lt;/span&gt;&lt;/span&gt;&lt;span style=&quot;border-color: var(--border-color); font-size: 10px;&quot;&gt;&lt;span style=&quot;font-size: 10px;&quot;&gt;&amp;nbsp;&amp;nbsp;&amp;nbsp;&amp;nbsp;&lt;/span&gt;&lt;/span&gt;123&lt;span style=&quot;border-color: var(--border-color); font-size: 10px;&quot;&gt;&lt;span style=&quot;font-size: 10px;&quot;&gt;&amp;nbsp;&amp;nbsp;&amp;nbsp;&amp;nbsp;&lt;/span&gt;&lt;/span&gt;&lt;span style=&quot;border-color: var(--border-color); font-size: 10px;&quot;&gt;&lt;span style=&quot;font-size: 10px;&quot;&gt;&amp;nbsp;&amp;nbsp;&amp;nbsp;&amp;nbsp;&lt;/span&gt;&lt;/span&gt;123&lt;br style=&quot;font-size: 10px;&quot;&gt;&lt;br style=&quot;font-size: 10px;&quot;&gt;123&#x9;&lt;span style=&quot;border-color: var(--border-color); font-size: 10px;&quot;&gt;&lt;span style=&quot;font-size: 10px;&quot;&gt;&amp;nbsp;&amp;nbsp;&amp;nbsp;&amp;nbsp;&lt;/span&gt;&lt;/span&gt;123&lt;span style=&quot;border-color: var(--border-color); font-size: 10px;&quot;&gt;&lt;span style=&quot;font-size: 10px;&quot;&gt;&amp;nbsp;&amp;nbsp;&amp;nbsp;&amp;nbsp;&lt;/span&gt;&lt;/span&gt;&lt;span style=&quot;border-color: var(--border-color); font-size: 10px;&quot;&gt;&lt;span style=&quot;font-size: 10px;&quot;&gt;&amp;nbsp;&amp;nbsp;&amp;nbsp;&amp;nbsp;&lt;/span&gt;&lt;/span&gt;123&lt;span style=&quot;border-color: var(--border-color); font-size: 10px;&quot;&gt;&lt;span style=&quot;font-size: 10px;&quot;&gt;&amp;nbsp;&amp;nbsp;&amp;nbsp;&amp;nbsp;&lt;/span&gt;&lt;/span&gt;&lt;span style=&quot;border-color: var(--border-color); font-size: 10px;&quot;&gt;&lt;span style=&quot;font-size: 10px;&quot;&gt;&amp;nbsp;&amp;nbsp;&amp;nbsp;&amp;nbsp;&lt;/span&gt;&lt;/span&gt;123&lt;br style=&quot;font-size: 10px;&quot;&gt;&lt;br style=&quot;font-size: 10px;&quot;&gt;123&#x9;&lt;span style=&quot;border-color: var(--border-color); font-size: 10px;&quot;&gt;&lt;span style=&quot;white-space: pre; font-size: 10px;&quot;&gt;&amp;nbsp;&amp;nbsp;&amp;nbsp;&amp;nbsp;&lt;/span&gt;&lt;/span&gt;123&lt;span style=&quot;border-color: var(--border-color); font-size: 10px;&quot;&gt;&lt;span style=&quot;white-space: pre; font-size: 10px;&quot;&gt;&amp;nbsp;&amp;nbsp;&amp;nbsp;&amp;nbsp;&lt;/span&gt;&lt;/span&gt;&lt;span style=&quot;border-color: var(--border-color); font-size: 10px;&quot;&gt;&lt;span style=&quot;white-space: pre; font-size: 10px;&quot;&gt;&amp;nbsp;&amp;nbsp;&amp;nbsp;&amp;nbsp;&lt;/span&gt;&lt;/span&gt;123&lt;span style=&quot;border-color: var(--border-color); font-size: 10px;&quot;&gt;&lt;span style=&quot;white-space: pre; font-size: 10px;&quot;&gt;&amp;nbsp;&amp;nbsp;&amp;nbsp;&amp;nbsp;&lt;/span&gt;&lt;/span&gt;&lt;span style=&quot;border-color: var(--border-color); font-size: 10px;&quot;&gt;&lt;span style=&quot;white-space: pre; font-size: 10px;&quot;&gt;&amp;nbsp;&amp;nbsp;&amp;nbsp;&amp;nbsp;&lt;/span&gt;&lt;/span&gt;123" style="strokeColor=none;fillColor=none;fontSize=10;fontColor=#596780;align=left;html=1;sketch=1;hachureGap=4;pointerEvents=0;fontFamily=Helvetica;" vertex="1" parent="nETb7EGVO4KnXeCZTSQA-59">
          <mxGeometry x="320" y="36.47" width="197.51" height="87.38" as="geometry" />
        </mxCell>
        <mxCell id="nETb7EGVO4KnXeCZTSQA-19" value="" style="rounded=1;arcSize=23;fillColor=#42526E;strokeColor=none;sketch=0;hachureGap=4;pointerEvents=0;fontFamily=Helvetica;fontSize=20;" vertex="1" parent="nETb7EGVO4KnXeCZTSQA-59">
          <mxGeometry x="557.8125" y="22.22222222222222" width="37.5" height="19.047619047619047" as="geometry" />
        </mxCell>
        <mxCell id="nETb7EGVO4KnXeCZTSQA-20" value="" style="shape=ellipse;fillColor=#ffffff;strokeColor=none;html=1;sketch=0;hachureGap=4;pointerEvents=0;fontFamily=Helvetica;fontSize=20;" vertex="1" parent="nETb7EGVO4KnXeCZTSQA-19">
          <mxGeometry x="0.5" y="0.5" width="4" height="4" relative="1" as="geometry">
            <mxPoint x="-10" y="-2" as="offset" />
          </mxGeometry>
        </mxCell>
        <mxCell id="nETb7EGVO4KnXeCZTSQA-21" value="" style="shape=ellipse;fillColor=#ffffff;strokeColor=none;html=1;sketch=0;hachureGap=4;pointerEvents=0;fontFamily=Helvetica;fontSize=20;" vertex="1" parent="nETb7EGVO4KnXeCZTSQA-19">
          <mxGeometry x="0.5" y="0.5" width="4" height="4" relative="1" as="geometry">
            <mxPoint x="-2" y="-2" as="offset" />
          </mxGeometry>
        </mxCell>
        <mxCell id="nETb7EGVO4KnXeCZTSQA-22" value="" style="shape=ellipse;fillColor=#ffffff;strokeColor=none;html=1;sketch=0;hachureGap=4;pointerEvents=0;fontFamily=Helvetica;fontSize=20;" vertex="1" parent="nETb7EGVO4KnXeCZTSQA-19">
          <mxGeometry x="0.5" y="0.5" width="4" height="4" relative="1" as="geometry">
            <mxPoint x="6" y="-2" as="offset" />
          </mxGeometry>
        </mxCell>
        <mxCell id="nETb7EGVO4KnXeCZTSQA-23" value="TPU B" style="strokeColor=none;fillColor=none;fontSize=12;fontColor=#596780;align=left;html=1;sketch=1;hachureGap=4;pointerEvents=0;fontFamily=Helvetica;" vertex="1" parent="nETb7EGVO4KnXeCZTSQA-59">
          <mxGeometry x="9.375" y="48.41269841269841" width="225" height="15.873015873015872" as="geometry" />
        </mxCell>
        <mxCell id="nETb7EGVO4KnXeCZTSQA-29" value="" style="strokeColor=none;fillColor=#CCE0FF;fontSize=11;fontColor=#3384FF;rounded=1;html=1;align=center;fontStyle=1;sketch=1;hachureGap=4;pointerEvents=0;fontFamily=Helvetica;" vertex="1" parent="nETb7EGVO4KnXeCZTSQA-59">
          <mxGeometry x="9.375" y="72.2226984126984" width="37.5" height="15.873015873015872" as="geometry" />
        </mxCell>
        <mxCell id="nETb7EGVO4KnXeCZTSQA-31" value="TPU C" style="strokeColor=none;fillColor=none;fontSize=12;fontColor=#596780;align=left;html=1;sketch=1;hachureGap=4;pointerEvents=0;fontFamily=Helvetica;" vertex="1" parent="nETb7EGVO4KnXeCZTSQA-59">
          <mxGeometry x="9.375" y="72.22222222222221" width="225" height="15.873015873015872" as="geometry" />
        </mxCell>
        <mxCell id="nETb7EGVO4KnXeCZTSQA-39" value="TPU D" style="strokeColor=none;fillColor=none;fontSize=12;fontColor=#596780;align=left;html=1;sketch=1;hachureGap=4;pointerEvents=0;fontFamily=Helvetica;" vertex="1" parent="nETb7EGVO4KnXeCZTSQA-59">
          <mxGeometry x="9.375" y="96.03174603174604" width="225" height="15.873015873015872" as="geometry" />
        </mxCell>
        <mxCell id="nETb7EGVO4KnXeCZTSQA-47" value="TPU E" style="strokeColor=none;fillColor=none;fontSize=12;fontColor=#596780;align=left;html=1;sketch=1;hachureGap=4;pointerEvents=0;fontFamily=Helvetica;" vertex="1" parent="nETb7EGVO4KnXeCZTSQA-59">
          <mxGeometry x="9.375" y="119.84126984126985" width="225" height="15.873015873015872" as="geometry" />
        </mxCell>
        <mxCell id="nETb7EGVO4KnXeCZTSQA-55" value="" style="shape=line;strokeWidth=2;html=1;strokeColor=#DFE1E5;resizeWidth=1;sketch=1;hachureGap=4;pointerEvents=0;fontFamily=Helvetica;fontSize=20;" vertex="1" parent="nETb7EGVO4KnXeCZTSQA-59">
          <mxGeometry x="9.375" y="142.06349206349208" width="590.625" height="7.936507936507936" as="geometry" />
        </mxCell>
        <mxCell id="nETb7EGVO4KnXeCZTSQA-103" value="" style="group" vertex="1" connectable="0" parent="nETb7EGVO4KnXeCZTSQA-59">
          <mxGeometry x="469.9975" y="28.57000000000005" width="15" height="103.96888888888884" as="geometry" />
        </mxCell>
        <mxCell id="nETb7EGVO4KnXeCZTSQA-18" value="•••" style="shape=ellipse;fillColor=#0057D8;strokeColor=none;fontColor=#ffffff;align=center;verticalAlign=middle;whiteSpace=wrap;fontSize=10;fontStyle=0;html=1;sketch=0;hachureGap=4;pointerEvents=0;fontFamily=Helvetica;" vertex="1" parent="nETb7EGVO4KnXeCZTSQA-103">
          <mxGeometry y="91.27047619047615" width="15" height="12.698412698412698" as="geometry" />
        </mxCell>
        <mxCell id="nETb7EGVO4KnXeCZTSQA-30" value="•••" style="shape=ellipse;fillColor=#0057D8;strokeColor=none;fontColor=#ffffff;align=center;verticalAlign=middle;whiteSpace=wrap;fontSize=10;fontStyle=0;html=1;sketch=0;hachureGap=4;pointerEvents=0;fontFamily=Helvetica;" vertex="1" parent="nETb7EGVO4KnXeCZTSQA-103">
          <mxGeometry y="21.42999999999995" width="15" height="12.698412698412698" as="geometry" />
        </mxCell>
        <mxCell id="nETb7EGVO4KnXeCZTSQA-38" value="•••" style="shape=ellipse;fillColor=#0057D8;strokeColor=none;fontColor=#ffffff;align=center;verticalAlign=middle;whiteSpace=wrap;fontSize=10;fontStyle=0;html=1;sketch=0;hachureGap=4;pointerEvents=0;fontFamily=Helvetica;" vertex="1" parent="nETb7EGVO4KnXeCZTSQA-103">
          <mxGeometry y="45.23952380952376" width="15" height="12.698412698412698" as="geometry" />
        </mxCell>
        <mxCell id="nETb7EGVO4KnXeCZTSQA-46" value="•••" style="shape=ellipse;fillColor=#0057D8;strokeColor=none;fontColor=#ffffff;align=center;verticalAlign=middle;whiteSpace=wrap;fontSize=10;fontStyle=0;html=1;sketch=0;hachureGap=4;pointerEvents=0;fontFamily=Helvetica;" vertex="1" parent="nETb7EGVO4KnXeCZTSQA-103">
          <mxGeometry y="69.04904761904757" width="15" height="12.698412698412698" as="geometry" />
        </mxCell>
        <mxCell id="nETb7EGVO4KnXeCZTSQA-101" value="•••" style="shape=ellipse;fillColor=#0057D8;strokeColor=none;fontColor=#ffffff;align=center;verticalAlign=middle;whiteSpace=wrap;fontSize=10;fontStyle=0;html=1;sketch=0;hachureGap=4;pointerEvents=0;fontFamily=Helvetica;" vertex="1" parent="nETb7EGVO4KnXeCZTSQA-103">
          <mxGeometry width="15" height="12.698412698412698" as="geometry" />
        </mxCell>
        <mxCell id="nETb7EGVO4KnXeCZTSQA-127" value="" style="dashed=0;labelPosition=right;align=left;shape=mxgraph.gmdl.checkbox;strokeColor=#666666;fillColor=none;strokeWidth=2;aspect=fixed;sketch=0;html=1;" vertex="1" parent="nETb7EGVO4KnXeCZTSQA-59">
          <mxGeometry x="110" y="48.41999999999996" width="16" height="16" as="geometry" />
        </mxCell>
        <mxCell id="nETb7EGVO4KnXeCZTSQA-126" value="" style="dashed=0;labelPosition=right;align=left;shape=mxgraph.gmdl.checkbox;strokeColor=none;fillColor=#676767;strokeWidth=2;aspect=fixed;sketch=0;html=1;" vertex="1" parent="nETb7EGVO4KnXeCZTSQA-59">
          <mxGeometry x="110" y="25.269999999999982" width="16" height="16" as="geometry" />
        </mxCell>
        <mxCell id="nETb7EGVO4KnXeCZTSQA-128" value="" style="dashed=0;labelPosition=right;align=left;shape=mxgraph.gmdl.checkbox;strokeColor=none;fillColor=#676767;strokeWidth=2;aspect=fixed;sketch=0;html=1;" vertex="1" parent="nETb7EGVO4KnXeCZTSQA-59">
          <mxGeometry x="110" y="72.54999999999995" width="16" height="16" as="geometry" />
        </mxCell>
        <mxCell id="nETb7EGVO4KnXeCZTSQA-130" value="" style="dashed=0;labelPosition=right;align=left;shape=mxgraph.gmdl.checkbox;strokeColor=#666666;fillColor=none;strokeWidth=2;aspect=fixed;sketch=0;html=1;" vertex="1" parent="nETb7EGVO4KnXeCZTSQA-59">
          <mxGeometry x="110" y="96.03999999999996" width="16" height="16" as="geometry" />
        </mxCell>
        <mxCell id="nETb7EGVO4KnXeCZTSQA-131" value="" style="dashed=0;labelPosition=right;align=left;shape=mxgraph.gmdl.checkbox;strokeColor=#666666;fillColor=none;strokeWidth=2;aspect=fixed;sketch=0;html=1;" vertex="1" parent="nETb7EGVO4KnXeCZTSQA-59">
          <mxGeometry x="110" y="119.70999999999992" width="16" height="16" as="geometry" />
        </mxCell>
        <mxCell id="nETb7EGVO4KnXeCZTSQA-132" value="" style="group" vertex="1" connectable="0" parent="nETb7EGVO4KnXeCZTSQA-59">
          <mxGeometry x="210.015" y="48.405555555555566" width="37.5" height="87.30301587301585" as="geometry" />
        </mxCell>
        <mxCell id="nETb7EGVO4KnXeCZTSQA-42" value="100" style="strokeColor=none;fillColor=none;fontSize=10;fontColor=#596780;align=right;html=1;sketch=1;hachureGap=4;pointerEvents=0;fontFamily=Helvetica;" vertex="1" parent="nETb7EGVO4KnXeCZTSQA-132">
          <mxGeometry width="37.5" height="15.873015873015872" as="geometry" />
        </mxCell>
        <mxCell id="nETb7EGVO4KnXeCZTSQA-66" value="80" style="strokeColor=none;fillColor=none;fontSize=10;fontColor=#596780;align=right;html=1;sketch=1;hachureGap=4;pointerEvents=0;fontFamily=Helvetica;" vertex="1" parent="nETb7EGVO4KnXeCZTSQA-132">
          <mxGeometry y="47.61999999999994" width="37.5" height="15.873015873015872" as="geometry" />
        </mxCell>
        <mxCell id="nETb7EGVO4KnXeCZTSQA-67" value="80" style="strokeColor=none;fillColor=none;fontSize=10;fontColor=#596780;align=right;html=1;sketch=1;hachureGap=4;pointerEvents=0;fontFamily=Helvetica;" vertex="1" parent="nETb7EGVO4KnXeCZTSQA-132">
          <mxGeometry y="71.42999999999998" width="37.5" height="15.873015873015872" as="geometry" />
        </mxCell>
        <mxCell id="nETb7EGVO4KnXeCZTSQA-65" value="80" style="strokeColor=none;fillColor=none;fontSize=10;fontColor=#596780;align=right;html=1;sketch=1;hachureGap=4;pointerEvents=0;fontFamily=Helvetica;" vertex="1" parent="nETb7EGVO4KnXeCZTSQA-132">
          <mxGeometry x="-0.01999999999998181" y="24.67999999999995" width="37.5" height="15.873015873015872" as="geometry" />
        </mxCell>
        <mxCell id="nETb7EGVO4KnXeCZTSQA-64" value="100" style="strokeColor=none;fillColor=none;fontSize=10;fontColor=#596780;align=right;html=1;sketch=1;hachureGap=4;pointerEvents=0;fontFamily=Helvetica;" vertex="1" parent="nETb7EGVO4KnXeCZTSQA-59">
          <mxGeometry x="210.01500000000004" y="25.39555555555546" width="37.5" height="15.873015873015872" as="geometry" />
        </mxCell>
        <mxCell id="IrsWf6ujI1S_CX8h6fi--34" value="Selected Parameters" style="html=1;shadow=0;dashed=0;shape=mxgraph.bootstrap.rect;strokeColor=none;fillColor=none;fontColor=#999999;align=left;spacingLeft=5;whiteSpace=wrap;rounded=0;fontStyle=1" parent="1" vertex="1">
          <mxGeometry x="109.99999999999999" y="-1114.326043956044" width="153.04347826086953" height="12.967032967032969" as="geometry" />
        </mxCell>
        <mxCell id="IrsWf6ujI1S_CX8h6fi--40" value="Parameter Values" style="html=1;shadow=0;dashed=0;shape=mxgraph.bootstrap.rect;strokeColor=none;fillColor=none;fontColor=#999999;align=left;spacingLeft=5;whiteSpace=wrap;rounded=0;fontStyle=1" parent="1" vertex="1">
          <mxGeometry x="270.69913043478255" y="-1112.376043956044" width="153.04347826086953" height="12.967032967032969" as="geometry" />
        </mxCell>
        <mxCell id="nETb7EGVO4KnXeCZTSQA-105" value="TPU" style="html=1;shadow=0;dashed=0;shape=mxgraph.bootstrap.rrect;rSize=5;strokeColor=#CED4DA;html=1;whiteSpace=wrap;fillColor=#FFFFFF;fontColor=#7D868C;align=left;spacing=15;spacingLeft=40;fontSize=14;" vertex="1" parent="1">
          <mxGeometry x="110" y="-1207.03" width="590" height="32.97" as="geometry" />
        </mxCell>
        <mxCell id="nETb7EGVO4KnXeCZTSQA-106" value="Dropdown..." style="html=1;shadow=0;dashed=0;shape=mxgraph.bootstrap.rightButton;strokeColor=#6C757D;gradientColor=inherit;fontColor=inherit;fillColor=inherit;rSize=5;perimeter=none;whiteSpace=wrap;resizeHeight=1;fontSize=14;align=left;spacing=15;" vertex="1" parent="nETb7EGVO4KnXeCZTSQA-105">
          <mxGeometry x="1" width="120" height="32.97" relative="1" as="geometry">
            <mxPoint x="-120" as="offset" />
          </mxGeometry>
        </mxCell>
        <mxCell id="nETb7EGVO4KnXeCZTSQA-107" value="" style="shape=triangle;direction=south;fillColor=#6C767D;strokeColor=none;perimeter=none;" vertex="1" parent="nETb7EGVO4KnXeCZTSQA-106">
          <mxGeometry x="1" y="0.5" width="10" height="5" relative="1" as="geometry">
            <mxPoint x="-17" y="-2.5" as="offset" />
          </mxGeometry>
        </mxCell>
        <mxCell id="nETb7EGVO4KnXeCZTSQA-109" value="" style="html=1;shadow=0;dashed=0;shape=mxgraph.bootstrap.rrect;rSize=5;strokeColor=#CED4DA;html=1;whiteSpace=wrap;fillColor=#FFFFFF;fontColor=#7D868C;align=left;spacing=15;spacingLeft=40;fontSize=14;" vertex="1" parent="1">
          <mxGeometry x="110" y="-1155.16" width="590" height="32.97" as="geometry" />
        </mxCell>
        <mxCell id="nETb7EGVO4KnXeCZTSQA-110" value="Dropdown..." style="html=1;shadow=0;dashed=0;shape=mxgraph.bootstrap.rightButton;strokeColor=#6C757D;gradientColor=inherit;fontColor=inherit;fillColor=inherit;rSize=5;perimeter=none;whiteSpace=wrap;resizeHeight=1;fontSize=14;align=left;spacing=15;" vertex="1" parent="nETb7EGVO4KnXeCZTSQA-109">
          <mxGeometry x="1" width="120" height="32.97" relative="1" as="geometry">
            <mxPoint x="-120" as="offset" />
          </mxGeometry>
        </mxCell>
        <mxCell id="nETb7EGVO4KnXeCZTSQA-111" value="" style="shape=triangle;direction=south;fillColor=#6C767D;strokeColor=none;perimeter=none;" vertex="1" parent="nETb7EGVO4KnXeCZTSQA-110">
          <mxGeometry x="1" y="0.5" width="10" height="5" relative="1" as="geometry">
            <mxPoint x="-17" y="-2.5" as="offset" />
          </mxGeometry>
        </mxCell>
        <mxCell id="nETb7EGVO4KnXeCZTSQA-116" value="Help" style="html=1;shadow=0;dashed=0;shape=mxgraph.bootstrap.rrect;rSize=5;fontSize=16;strokeColor=#666666;whiteSpace=wrap;fillColor=#f5f5f5;gradientColor=#b3b3b3;" vertex="1" parent="1">
          <mxGeometry x="909.998260869565" y="-1207.031208791209" width="80" height="40" as="geometry" />
        </mxCell>
        <mxCell id="nETb7EGVO4KnXeCZTSQA-151" value="Assets" style="childLayout=tableLayout;recursiveResize=0;strokeColor=#98bf21;fillColor=#A7C942;shadow=1;" vertex="1" parent="1">
          <mxGeometry x="263.04" y="-1099.41" width="246.96" height="89.41" as="geometry" />
        </mxCell>
        <mxCell id="nETb7EGVO4KnXeCZTSQA-152" style="shape=tableRow;horizontal=0;startSize=0;swimlaneHead=0;swimlaneBody=0;top=0;left=0;bottom=0;right=0;dropTarget=0;collapsible=0;recursiveResize=0;expand=0;fontStyle=0;strokeColor=inherit;fillColor=#ffffff;" vertex="1" parent="nETb7EGVO4KnXeCZTSQA-151">
          <mxGeometry width="246.96" height="19" as="geometry" />
        </mxCell>
        <mxCell id="nETb7EGVO4KnXeCZTSQA-153" value="Min" style="connectable=0;recursiveResize=0;strokeColor=inherit;fillColor=#A7C942;align=center;fontStyle=1;fontColor=#FFFFFF;html=1;" vertex="1" parent="nETb7EGVO4KnXeCZTSQA-152">
          <mxGeometry width="81" height="19" as="geometry">
            <mxRectangle width="81" height="19" as="alternateBounds" />
          </mxGeometry>
        </mxCell>
        <mxCell id="nETb7EGVO4KnXeCZTSQA-154" value="Max" style="connectable=0;recursiveResize=0;strokeColor=inherit;fillColor=#A7C942;align=center;fontStyle=1;fontColor=#FFFFFF;html=1;" vertex="1" parent="nETb7EGVO4KnXeCZTSQA-152">
          <mxGeometry x="81" width="85" height="19" as="geometry">
            <mxRectangle width="85" height="19" as="alternateBounds" />
          </mxGeometry>
        </mxCell>
        <mxCell id="nETb7EGVO4KnXeCZTSQA-155" value="" style="connectable=0;recursiveResize=0;strokeColor=inherit;fillColor=#A7C942;align=center;fontStyle=1;fontColor=#FFFFFF;html=1;" vertex="1" parent="nETb7EGVO4KnXeCZTSQA-152">
          <mxGeometry x="166" width="81" height="19" as="geometry">
            <mxRectangle width="81" height="19" as="alternateBounds" />
          </mxGeometry>
        </mxCell>
        <mxCell id="nETb7EGVO4KnXeCZTSQA-156" value="" style="shape=tableRow;horizontal=0;startSize=0;swimlaneHead=0;swimlaneBody=0;top=0;left=0;bottom=0;right=0;dropTarget=0;collapsible=0;recursiveResize=0;expand=0;fontStyle=0;strokeColor=inherit;fillColor=#ffffff;" vertex="1" parent="nETb7EGVO4KnXeCZTSQA-151">
          <mxGeometry y="19" width="246.96" height="17" as="geometry" />
        </mxCell>
        <mxCell id="nETb7EGVO4KnXeCZTSQA-157" value="Value 1" style="connectable=0;recursiveResize=0;strokeColor=inherit;fillColor=inherit;align=center;whiteSpace=wrap;html=1;" vertex="1" parent="nETb7EGVO4KnXeCZTSQA-156">
          <mxGeometry width="81" height="17" as="geometry">
            <mxRectangle width="81" height="17" as="alternateBounds" />
          </mxGeometry>
        </mxCell>
        <mxCell id="nETb7EGVO4KnXeCZTSQA-158" value="Value 2" style="connectable=0;recursiveResize=0;strokeColor=inherit;fillColor=inherit;align=center;whiteSpace=wrap;html=1;" vertex="1" parent="nETb7EGVO4KnXeCZTSQA-156">
          <mxGeometry x="81" width="85" height="17" as="geometry">
            <mxRectangle width="85" height="17" as="alternateBounds" />
          </mxGeometry>
        </mxCell>
        <mxCell id="nETb7EGVO4KnXeCZTSQA-159" value="" style="connectable=0;recursiveResize=0;strokeColor=inherit;fillColor=inherit;align=center;whiteSpace=wrap;html=1;" vertex="1" parent="nETb7EGVO4KnXeCZTSQA-156">
          <mxGeometry x="166" width="81" height="17" as="geometry">
            <mxRectangle width="81" height="17" as="alternateBounds" />
          </mxGeometry>
        </mxCell>
        <mxCell id="nETb7EGVO4KnXeCZTSQA-160" value="" style="shape=tableRow;horizontal=0;startSize=0;swimlaneHead=0;swimlaneBody=0;top=0;left=0;bottom=0;right=0;dropTarget=0;collapsible=0;recursiveResize=0;expand=0;fontStyle=1;strokeColor=inherit;fillColor=#EAF2D3;" vertex="1" parent="nETb7EGVO4KnXeCZTSQA-151">
          <mxGeometry y="36" width="246.96" height="18" as="geometry" />
        </mxCell>
        <mxCell id="nETb7EGVO4KnXeCZTSQA-161" value="Value 4" style="connectable=0;recursiveResize=0;strokeColor=inherit;fillColor=inherit;whiteSpace=wrap;html=1;" vertex="1" parent="nETb7EGVO4KnXeCZTSQA-160">
          <mxGeometry width="81" height="18" as="geometry">
            <mxRectangle width="81" height="18" as="alternateBounds" />
          </mxGeometry>
        </mxCell>
        <mxCell id="nETb7EGVO4KnXeCZTSQA-162" value="Value 5" style="connectable=0;recursiveResize=0;strokeColor=inherit;fillColor=inherit;whiteSpace=wrap;html=1;" vertex="1" parent="nETb7EGVO4KnXeCZTSQA-160">
          <mxGeometry x="81" width="85" height="18" as="geometry">
            <mxRectangle width="85" height="18" as="alternateBounds" />
          </mxGeometry>
        </mxCell>
        <mxCell id="nETb7EGVO4KnXeCZTSQA-163" value="" style="connectable=0;recursiveResize=0;strokeColor=inherit;fillColor=inherit;whiteSpace=wrap;html=1;" vertex="1" parent="nETb7EGVO4KnXeCZTSQA-160">
          <mxGeometry x="166" width="81" height="18" as="geometry">
            <mxRectangle width="81" height="18" as="alternateBounds" />
          </mxGeometry>
        </mxCell>
        <mxCell id="nETb7EGVO4KnXeCZTSQA-164" value="" style="shape=tableRow;horizontal=0;startSize=0;swimlaneHead=0;swimlaneBody=0;top=0;left=0;bottom=0;right=0;dropTarget=0;collapsible=0;recursiveResize=0;expand=0;fontStyle=0;strokeColor=inherit;fillColor=#ffffff;" vertex="1" parent="nETb7EGVO4KnXeCZTSQA-151">
          <mxGeometry y="54" width="246.96" height="18" as="geometry" />
        </mxCell>
        <mxCell id="nETb7EGVO4KnXeCZTSQA-165" value="Value 7" style="connectable=0;recursiveResize=0;strokeColor=inherit;fillColor=inherit;fontStyle=0;align=center;whiteSpace=wrap;html=1;" vertex="1" parent="nETb7EGVO4KnXeCZTSQA-164">
          <mxGeometry width="81" height="18" as="geometry">
            <mxRectangle width="81" height="18" as="alternateBounds" />
          </mxGeometry>
        </mxCell>
        <mxCell id="nETb7EGVO4KnXeCZTSQA-166" value="Value 8" style="connectable=0;recursiveResize=0;strokeColor=inherit;fillColor=inherit;fontStyle=0;align=center;whiteSpace=wrap;html=1;" vertex="1" parent="nETb7EGVO4KnXeCZTSQA-164">
          <mxGeometry x="81" width="85" height="18" as="geometry">
            <mxRectangle width="85" height="18" as="alternateBounds" />
          </mxGeometry>
        </mxCell>
        <mxCell id="nETb7EGVO4KnXeCZTSQA-167" value="" style="connectable=0;recursiveResize=0;strokeColor=inherit;fillColor=inherit;fontStyle=0;align=center;whiteSpace=wrap;html=1;" vertex="1" parent="nETb7EGVO4KnXeCZTSQA-164">
          <mxGeometry x="166" width="81" height="18" as="geometry">
            <mxRectangle width="81" height="18" as="alternateBounds" />
          </mxGeometry>
        </mxCell>
        <mxCell id="nETb7EGVO4KnXeCZTSQA-168" value="" style="shape=tableRow;horizontal=0;startSize=0;swimlaneHead=0;swimlaneBody=0;top=0;left=0;bottom=0;right=0;dropTarget=0;collapsible=0;recursiveResize=0;expand=0;fontStyle=1;strokeColor=inherit;fillColor=#EAF2D3;" vertex="1" parent="nETb7EGVO4KnXeCZTSQA-151">
          <mxGeometry y="72" width="246.96" height="17" as="geometry" />
        </mxCell>
        <mxCell id="nETb7EGVO4KnXeCZTSQA-169" value="Value 10" style="connectable=0;recursiveResize=0;strokeColor=inherit;fillColor=inherit;whiteSpace=wrap;html=1;" vertex="1" parent="nETb7EGVO4KnXeCZTSQA-168">
          <mxGeometry width="81" height="17" as="geometry">
            <mxRectangle width="81" height="17" as="alternateBounds" />
          </mxGeometry>
        </mxCell>
        <mxCell id="nETb7EGVO4KnXeCZTSQA-170" value="Value 11" style="connectable=0;recursiveResize=0;strokeColor=inherit;fillColor=inherit;whiteSpace=wrap;html=1;" vertex="1" parent="nETb7EGVO4KnXeCZTSQA-168">
          <mxGeometry x="81" width="85" height="17" as="geometry">
            <mxRectangle width="85" height="17" as="alternateBounds" />
          </mxGeometry>
        </mxCell>
        <mxCell id="nETb7EGVO4KnXeCZTSQA-171" value="" style="connectable=0;recursiveResize=0;strokeColor=inherit;fillColor=inherit;whiteSpace=wrap;html=1;" vertex="1" parent="nETb7EGVO4KnXeCZTSQA-168">
          <mxGeometry x="166" width="81" height="17" as="geometry">
            <mxRectangle width="81" height="17" as="alternateBounds" />
          </mxGeometry>
        </mxCell>
        <mxCell id="nETb7EGVO4KnXeCZTSQA-172" value="" style="group" vertex="1" connectable="0" parent="1">
          <mxGeometry x="117.65" y="-1099.41" width="22.35" height="89.41" as="geometry" />
        </mxCell>
        <mxCell id="IrsWf6ujI1S_CX8h6fi--35" value="Paremeter A" style="html=1;shadow=0;dashed=0;shape=mxgraph.bootstrap.checkbox;fontSize=12;strokeColor=#999999;align=left;labelPosition=right;spacingLeft=5;rounded=0;" parent="nETb7EGVO4KnXeCZTSQA-172" vertex="1">
          <mxGeometry width="22.350000000000023" height="13.316382978723377" as="geometry" />
        </mxCell>
        <mxCell id="IrsWf6ujI1S_CX8h6fi--36" value="Parameter B" style="html=1;shadow=0;dashed=0;shape=mxgraph.bootstrap.rrect;fontSize=12;rSize=3;strokeColor=#999999;align=left;labelPosition=right;spacingLeft=5;rounded=0;" parent="nETb7EGVO4KnXeCZTSQA-172" vertex="1">
          <mxGeometry y="19.023404255319146" width="22.350000000000023" height="13.316382978723377" as="geometry" />
        </mxCell>
        <mxCell id="IrsWf6ujI1S_CX8h6fi--37" value="Parameter C" style="html=1;shadow=0;dashed=0;shape=mxgraph.bootstrap.checkbox;fontSize=12;strokeColor=#999999;align=left;labelPosition=right;spacingLeft=5;rounded=0;" parent="nETb7EGVO4KnXeCZTSQA-172" vertex="1">
          <mxGeometry y="38.04680851063829" width="22.350000000000023" height="13.316382978723377" as="geometry" />
        </mxCell>
        <mxCell id="IrsWf6ujI1S_CX8h6fi--38" value="Parameter D" style="html=1;shadow=0;dashed=0;shape=mxgraph.bootstrap.rrect;fontSize=12;rSize=3;strokeColor=#999999;align=left;labelPosition=right;spacingLeft=5;rounded=0;" parent="nETb7EGVO4KnXeCZTSQA-172" vertex="1">
          <mxGeometry y="57.07021276595744" width="22.350000000000023" height="13.316382978723377" as="geometry" />
        </mxCell>
        <mxCell id="IrsWf6ujI1S_CX8h6fi--39" value="Parameter E" style="html=1;shadow=0;dashed=0;shape=mxgraph.bootstrap.rrect;fontSize=12;rSize=3;strokeColor=#999999;align=left;labelPosition=right;spacingLeft=5;rounded=0;" parent="nETb7EGVO4KnXeCZTSQA-172" vertex="1">
          <mxGeometry y="76.09361702127659" width="22.350000000000023" height="13.316382978723377" as="geometry" />
        </mxCell>
      </root>
    </mxGraphModel>
  </diagram>
</mxfile>
